<svg xmlns="http://www.w3.org/2000/svg" viewBox="0 0 400 300" fill="none">
  <rect width="400" height="300" fill="#eff6ff"/>
  <circle cx="70" cy="70" r="60" fill="#dbeafe" opacity="0.7"/>
  <circle cx="330" cy="230" r="70" fill="#e0f2fe" opacity="0.7"/>

  <g transform="translate(90, 70)">
    <rect x="20" y="30" width="200" height="140" rx="26" fill="#1f3a5f" opacity="0.92"/>
    <rect x="35" y="45" width="170" height="110" rx="18" fill="#f8fafc"/>

    <rect x="55" y="65" width="130" height="40" rx="8" fill="#0b1220"/>
    <text x="120" y="91" font-family="system-ui, sans-serif" font-size="14" fill="#38bdf8" text-anchor="middle">AI CORE</text>

    <circle cx="70" cy="125" r="8" fill="#2563eb"/>
    <circle cx="100" cy="125" r="8" fill="#ff7a59"/>
    <circle cx="130" cy="125" r="8" fill="#94a3b8"/>

    <rect x="150" y="118" width="40" height="16" rx="6" fill="#e2e8f0"/>

    <path d="M35 60 L15 45" stroke="#cbd5f5" stroke-width="3"/>
    <path d="M205 60 L225 45" stroke="#cbd5f5" stroke-width="3"/>
    <path d="M35 150 L15 165" stroke="#cbd5f5" stroke-width="3"/>
    <path d="M205 150 L225 165" stroke="#cbd5f5" stroke-width="3"/>
  </g>

  <text x="200" y="235" font-family="system-ui, sans-serif" font-size="16" font-weight="600" fill="#1e3a8a" text-anchor="middle">AI Product Series</text>
  <text x="200" y="258" font-family="system-ui, sans-serif" font-size="12" fill="#64748b" text-anchor="middle">Smart devices with on-device intelligence</text>
</svg>
